<?xml version="1.0" standalone="no"?>
<svg xmlns="http://www.w3.org/2000/svg" xmlns:xlink="http://www.w3.org/1999/xlink" width="422pt" height="404pt" viewBox="0.00 0.00 422 403.60">
<g id="graph0" class="graph" transform="translate(15.009430843963429,385.2483153632378) scale(0.9384379972397903)" data-name="">
<polygon fill="white" stroke="none" points="-4,4 -4,-399.6 418,-399.6 418,4 -4,4"/>
<!-- sorted_1 -->
<g id="node1" class="node" pointer-events="visible" data-name="sorted_1">

<polygon fill="none" stroke="black" points="54,-210.1 0,-210.1 0,-185.5 54,-185.5 54,-210.1"/>
<text text-anchor="middle" x="27" y="-193.6" font-family="Times,serif" font-size="14.00">56</text>
</g>
<!-- merge_1 -->
<g id="node15" class="node" pointer-events="visible" data-name="merge_1">

<polygon fill="none" stroke="black" points="72,-124.1 72,-148.9 132,-148.9 132,-124.1 72,-124.1"/>
<text text-anchor="middle" x="87" y="-132.3" font-family="Times,serif" font-size="14.00">10</text>
<polyline fill="none" stroke="black" points="102,-124.1 102,-148.9"/>
<text text-anchor="middle" x="117" y="-132.3" font-family="Times,serif" font-size="14.00">56</text>
</g>
<!-- sorted_1&#45;&gt;merge_1 -->
<g id="edge13" class="edge" data-name="sorted_1-&gt;merge_1:f2" data-comment="sorted_1-&gt;merge_1">

<path fill="none" stroke="black" d="M49.25,-185.08C67.78,-175.32 93.3,-161.88 107.12,-154.6"/>
<polygon fill="black" stroke="black" points="108.44,-157.86 115.66,-150.11 105.18,-151.67 108.44,-157.86"/>
</g>
<!-- sorted_2 -->
<g id="node2" class="node" pointer-events="visible" data-name="sorted_2">

<polygon fill="none" stroke="black" points="126,-210.1 72,-210.1 72,-185.5 126,-185.5 126,-210.1"/>
<text text-anchor="middle" x="99" y="-193.6" font-family="Times,serif" font-size="14.00">10</text>
</g>
<!-- sorted_2&#45;&gt;merge_1 -->
<g id="edge14" class="edge" data-name="sorted_2-&gt;merge_1:f1" data-comment="sorted_2-&gt;merge_1">

<path fill="none" stroke="black" d="M96.1,-185.33C94.18,-177.76 91.69,-167.91 89.8,-160.44"/>
<polygon fill="black" stroke="black" points="93.22,-159.7 87.37,-150.87 86.43,-161.42 93.22,-159.7"/>
</g>
<!-- sorted_3 -->
<g id="node3" class="node" pointer-events="visible" data-name="sorted_3">

<polygon fill="none" stroke="black" points="198,-210.1 144,-210.1 144,-185.5 198,-185.5 198,-210.1"/>
<text text-anchor="middle" x="171" y="-193.6" font-family="Times,serif" font-size="14.00">23</text>
</g>
<!-- merge_2 -->
<g id="node16" class="node" pointer-events="visible" data-name="merge_2">

<polygon fill="none" stroke="black" points="150,-124.1 150,-148.9 204,-148.9 204,-124.1 150,-124.1"/>
<text text-anchor="middle" x="177" y="-132.3" font-family="Times,serif" font-size="14.00">23</text>
</g>
<!-- sorted_3&#45;&gt;merge_2 -->
<g id="edge15" class="edge" data-name="sorted_3-&gt;merge_2">

<path fill="none" stroke="black" d="M172.19,-185.08C172.91,-177.93 173.86,-168.53 174.72,-159.99"/>
<polygon fill="black" stroke="black" points="178.18,-160.6 175.71,-150.29 171.22,-159.89 178.18,-160.6"/>
</g>
<!-- sorted_4 -->
<g id="node4" class="node" pointer-events="visible" data-name="sorted_4">

<polygon fill="none" stroke="black" points="270,-210.1 216,-210.1 216,-185.5 270,-185.5 270,-210.1"/>
<text text-anchor="middle" x="243" y="-193.6" font-family="Times,serif" font-size="14.00">9</text>
</g>
<!-- merge_3 -->
<g id="node17" class="node" pointer-events="visible" data-name="merge_3">

<polygon fill="none" stroke="black" points="268,-124.1 268,-148.9 322,-148.9 322,-124.1 268,-124.1"/>
<text text-anchor="middle" x="279.5" y="-132.3" font-family="Times,serif" font-size="14.00">9</text>
<polyline fill="none" stroke="black" points="291,-124.1 291,-148.9"/>
<text text-anchor="middle" x="306.5" y="-132.3" font-family="Times,serif" font-size="14.00">34</text>
</g>
<!-- sorted_4&#45;&gt;merge_3 -->
<g id="edge16" class="edge" data-name="sorted_4-&gt;merge_3:f1" data-comment="sorted_4-&gt;merge_3">

<path fill="none" stroke="black" d="M251.71,-185.33C257.96,-177.11 266.25,-166.18 272.05,-158.55"/>
<polygon fill="black" stroke="black" points="274.82,-160.69 278.08,-150.61 269.25,-156.45 274.82,-160.69"/>
</g>
<!-- sorted_5 -->
<g id="node5" class="node" pointer-events="visible" data-name="sorted_5">

<polygon fill="none" stroke="black" points="342,-210.1 288,-210.1 288,-185.5 342,-185.5 342,-210.1"/>
<text text-anchor="middle" x="315" y="-193.6" font-family="Times,serif" font-size="14.00">34</text>
</g>
<!-- sorted_5&#45;&gt;merge_3 -->
<g id="edge17" class="edge" data-name="sorted_5-&gt;merge_3:f2" data-comment="sorted_5-&gt;merge_3">

<path fill="none" stroke="black" d="M313.06,-185.33C311.79,-177.76 310.12,-167.91 308.86,-160.44"/>
<polygon fill="black" stroke="black" points="312.37,-160.17 307.25,-150.89 305.47,-161.34 312.37,-160.17"/>
</g>
<!-- sorted_6 -->
<g id="node6" class="node" pointer-events="visible" data-name="sorted_6">

<polygon fill="none" stroke="black" points="414,-210.1 360,-210.1 360,-185.5 414,-185.5 414,-210.1"/>
<text text-anchor="middle" x="387" y="-193.6" font-family="Times,serif" font-size="14.00">23</text>
</g>
<!-- merge_4 -->
<g id="node18" class="node" pointer-events="visible" data-name="merge_4">

<polygon fill="none" stroke="black" points="353,-124.1 353,-148.9 407,-148.9 407,-124.1 353,-124.1"/>
<text text-anchor="middle" x="380" y="-132.3" font-family="Times,serif" font-size="14.00">23</text>
</g>
<!-- sorted_6&#45;&gt;merge_4 -->
<g id="edge18" class="edge" data-name="sorted_6-&gt;merge_4">

<path fill="none" stroke="black" d="M385.62,-185.08C384.77,-177.93 383.66,-168.53 382.65,-159.99"/>
<polygon fill="black" stroke="black" points="386.16,-159.81 381.51,-150.29 379.21,-160.63 386.16,-159.81"/>
</g>
<!-- input -->
<g id="node7" class="node" pointer-events="visible" data-name="input">

<polygon fill="none" stroke="black" points="136.5,-370.3 136.5,-395.1 309.5,-395.1 309.5,-370.3 136.5,-370.3"/>
<text text-anchor="middle" x="151.5" y="-378.5" font-family="Times,serif" font-size="14.00">56</text>
<polyline fill="none" stroke="black" points="166.5,-370.3 166.5,-395.1"/>
<text text-anchor="middle" x="181.5" y="-378.5" font-family="Times,serif" font-size="14.00">10</text>
<polyline fill="none" stroke="black" points="196.5,-370.3 196.5,-395.1"/>
<text text-anchor="middle" x="211.5" y="-378.5" font-family="Times,serif" font-size="14.00">23</text>
<polyline fill="none" stroke="black" points="226.5,-370.3 226.5,-395.1"/>
<text text-anchor="middle" x="238" y="-378.5" font-family="Times,serif" font-size="14.00">9</text>
<polyline fill="none" stroke="black" points="249.5,-370.3 249.5,-395.1"/>
<text text-anchor="middle" x="264.5" y="-378.5" font-family="Times,serif" font-size="14.00">34</text>
<polyline fill="none" stroke="black" points="279.5,-370.3 279.5,-395.1"/>
<text text-anchor="middle" x="294.5" y="-378.5" font-family="Times,serif" font-size="14.00">23</text>
</g>
<!-- divide_31 -->
<g id="node9" class="node" pointer-events="visible" data-name="divide_31">

<polygon fill="none" stroke="black" points="126,-308.5 126,-333.3 216,-333.3 216,-308.5 126,-308.5"/>
<text text-anchor="middle" x="141" y="-316.7" font-family="Times,serif" font-size="14.00">56</text>
<polyline fill="none" stroke="black" points="156,-308.5 156,-333.3"/>
<text text-anchor="middle" x="171" y="-316.7" font-family="Times,serif" font-size="14.00">10</text>
<polyline fill="none" stroke="black" points="186,-308.5 186,-333.3"/>
<text text-anchor="middle" x="201" y="-316.7" font-family="Times,serif" font-size="14.00">23</text>
</g>
<!-- input&#45;&gt;divide_31 -->
<g id="edge1" class="edge" data-name="input-&gt;divide_31">

<path fill="none" stroke="black" d="M213.22,-370.45C206.17,-362.35 196.48,-351.21 188.16,-341.64"/>
<polygon fill="black" stroke="black" points="190.93,-339.49 181.73,-334.24 185.65,-344.08 190.93,-339.49"/>
</g>
<!-- divide_32 -->
<g id="node10" class="node" pointer-events="visible" data-name="divide_32">

<polygon fill="none" stroke="black" points="244.5,-308.5 244.5,-333.3 327.5,-333.3 327.5,-308.5 244.5,-308.5"/>
<text text-anchor="middle" x="256" y="-316.7" font-family="Times,serif" font-size="14.00">9</text>
<polyline fill="none" stroke="black" points="267.5,-308.5 267.5,-333.3"/>
<text text-anchor="middle" x="282.5" y="-316.7" font-family="Times,serif" font-size="14.00">34</text>
<polyline fill="none" stroke="black" points="297.5,-308.5 297.5,-333.3"/>
<text text-anchor="middle" x="312.5" y="-316.7" font-family="Times,serif" font-size="14.00">23</text>
</g>
<!-- input&#45;&gt;divide_32 -->
<g id="edge2" class="edge" data-name="input-&gt;divide_32">

<path fill="none" stroke="black" d="M234.85,-370.45C243.65,-362.1 255.86,-350.51 266.14,-340.75"/>
<polygon fill="black" stroke="black" points="268.26,-343.56 273.11,-334.14 263.44,-338.49 268.26,-343.56"/>
</g>
<!-- result -->
<g id="node8" class="node" pointer-events="visible" data-name="result">

<polygon fill="none" stroke="black" points="142.5,-0.5 142.5,-25.3 315.5,-25.3 315.5,-0.5 142.5,-0.5"/>
<text text-anchor="middle" x="154" y="-8.7" font-family="Times,serif" font-size="14.00">9</text>
<polyline fill="none" stroke="black" points="165.5,-0.5 165.5,-25.3"/>
<text text-anchor="middle" x="180.5" y="-8.7" font-family="Times,serif" font-size="14.00">10</text>
<polyline fill="none" stroke="black" points="195.5,-0.5 195.5,-25.3"/>
<text text-anchor="middle" x="210.5" y="-8.7" font-family="Times,serif" font-size="14.00">23</text>
<polyline fill="none" stroke="black" points="225.5,-0.5 225.5,-25.3"/>
<text text-anchor="middle" x="240.5" y="-8.7" font-family="Times,serif" font-size="14.00">23</text>
<polyline fill="none" stroke="black" points="255.5,-0.5 255.5,-25.3"/>
<text text-anchor="middle" x="270.5" y="-8.7" font-family="Times,serif" font-size="14.00">34</text>
<polyline fill="none" stroke="black" points="285.5,-0.5 285.5,-25.3"/>
<text text-anchor="middle" x="300.5" y="-8.7" font-family="Times,serif" font-size="14.00">56</text>
</g>
<!-- divide_21 -->
<g id="node11" class="node" pointer-events="visible" data-name="divide_21">

<polygon fill="none" stroke="black" points="54,-246.7 54,-271.5 114,-271.5 114,-246.7 54,-246.7"/>
<text text-anchor="middle" x="69" y="-254.9" font-family="Times,serif" font-size="14.00">56</text>
<polyline fill="none" stroke="black" points="84,-246.7 84,-271.5"/>
<text text-anchor="middle" x="99" y="-254.9" font-family="Times,serif" font-size="14.00">10</text>
</g>
<!-- divide_31&#45;&gt;divide_21 -->
<g id="edge3" class="edge" data-name="divide_31-&gt;divide_21">

<path fill="none" stroke="black" d="M154.64,-308.65C142,-299.97 124.27,-287.78 109.74,-277.79"/>
<polygon fill="black" stroke="black" points="111.76,-274.94 101.54,-272.15 107.8,-280.7 111.76,-274.94"/>
</g>
<!-- divide_11 -->
<g id="node13" class="node" pointer-events="visible" data-name="divide_11">

<polygon fill="none" stroke="black" points="144,-246.7 144,-271.5 198,-271.5 198,-246.7 144,-246.7"/>
<text text-anchor="middle" x="171" y="-254.9" font-family="Times,serif" font-size="14.00">23</text>
</g>
<!-- divide_31&#45;&gt;divide_11 -->
<g id="edge4" class="edge" data-name="divide_31-&gt;divide_11">

<path fill="none" stroke="black" d="M171,-308.65C171,-301.3 171,-291.45 171,-282.54"/>
<polygon fill="black" stroke="black" points="174.5,-282.81 171,-272.81 167.5,-282.81 174.5,-282.81"/>
</g>
<!-- divide_22 -->
<g id="node12" class="node" pointer-events="visible" data-name="divide_22">

<polygon fill="none" stroke="black" points="259,-246.7 259,-271.5 313,-271.5 313,-246.7 259,-246.7"/>
<text text-anchor="middle" x="270.5" y="-254.9" font-family="Times,serif" font-size="14.00">9</text>
<polyline fill="none" stroke="black" points="282,-246.7 282,-271.5"/>
<text text-anchor="middle" x="297.5" y="-254.9" font-family="Times,serif" font-size="14.00">34</text>
</g>
<!-- divide_32&#45;&gt;divide_22 -->
<g id="edge5" class="edge" data-name="divide_32-&gt;divide_22">

<path fill="none" stroke="black" d="M286,-308.65C286,-301.3 286,-291.45 286,-282.54"/>
<polygon fill="black" stroke="black" points="289.5,-282.81 286,-272.81 282.5,-282.81 289.5,-282.81"/>
</g>
<!-- divide_12 -->
<g id="node14" class="node" pointer-events="visible" data-name="divide_12">

<polygon fill="none" stroke="black" points="350,-246.7 350,-271.5 404,-271.5 404,-246.7 350,-246.7"/>
<text text-anchor="middle" x="377" y="-254.9" font-family="Times,serif" font-size="14.00">23</text>
</g>
<!-- divide_32&#45;&gt;divide_12 -->
<g id="edge6" class="edge" data-name="divide_32-&gt;divide_12">

<path fill="none" stroke="black" d="M303.12,-308.65C316.46,-299.88 335.23,-287.55 350.51,-277.5"/>
<polygon fill="black" stroke="black" points="352.26,-280.55 358.7,-272.13 348.42,-274.7 352.26,-280.55"/>
</g>
<!-- divide_21&#45;&gt;sorted_1 -->
<g id="edge7" class="edge" data-name="divide_21:f1-&gt;sorted_1" data-comment="divide_21-&gt;sorted_1">

<path fill="none" stroke="black" d="M69,-246.2C69,-246.2 56.19,-231.74 44.72,-218.8"/>
<polygon fill="black" stroke="black" points="47.42,-216.57 38.17,-211.41 42.18,-221.21 47.42,-216.57"/>
</g>
<!-- divide_21&#45;&gt;sorted_2 -->
<g id="edge8" class="edge" data-name="divide_21:f2-&gt;sorted_2" data-comment="divide_21-&gt;sorted_2">

<path fill="none" stroke="black" d="M99,-246.2C99,-246.2 99,-233.62 99,-221.43"/>
<polygon fill="black" stroke="black" points="102.5,-221.79 99,-211.79 95.5,-221.79 102.5,-221.79"/>
</g>
<!-- divide_22&#45;&gt;sorted_4 -->
<g id="edge9" class="edge" data-name="divide_22:f1-&gt;sorted_4" data-comment="divide_22-&gt;sorted_4">

<path fill="none" stroke="black" d="M270,-246.2C270,-246.2 262.23,-232.57 255.03,-219.92"/>
<polygon fill="black" stroke="black" points="258.28,-218.55 250.29,-211.59 252.19,-222.01 258.28,-218.55"/>
</g>
<!-- divide_22&#45;&gt;sorted_5 -->
<g id="edge10" class="edge" data-name="divide_22:f2-&gt;sorted_5" data-comment="divide_22-&gt;sorted_5">

<path fill="none" stroke="black" d="M298,-246.2C298,-246.2 302.6,-233.36 307.02,-221.05"/>
<polygon fill="black" stroke="black" points="310.29,-222.29 310.37,-211.7 303.7,-219.93 310.29,-222.29"/>
</g>
<!-- divide_11&#45;&gt;sorted_3 -->
<g id="edge11" class="edge" data-name="divide_11-&gt;sorted_3">

<path fill="none" stroke="black" d="M171,-246.95C171,-239.83 171,-230.35 171,-221.68"/>
<polygon fill="black" stroke="black" points="174.5,-221.82 171,-211.82 167.5,-221.82 174.5,-221.82"/>
</g>
<!-- divide_12&#45;&gt;sorted_6 -->
<g id="edge12" class="edge" data-name="divide_12-&gt;sorted_6">

<path fill="none" stroke="black" d="M378.88,-246.95C380.09,-239.75 381.72,-230.13 383.19,-221.39"/>
<polygon fill="black" stroke="black" points="386.6,-222.24 384.81,-211.8 379.69,-221.08 386.6,-222.24"/>
</g>
<!-- merge_5 -->
<g id="node19" class="node" pointer-events="visible" data-name="merge_5">

<polygon fill="none" stroke="black" points="132,-62.3 132,-87.1 222,-87.1 222,-62.3 132,-62.3"/>
<text text-anchor="middle" x="147" y="-70.5" font-family="Times,serif" font-size="14.00">10</text>
<polyline fill="none" stroke="black" points="162,-62.3 162,-87.1"/>
<text text-anchor="middle" x="177" y="-70.5" font-family="Times,serif" font-size="14.00">23</text>
<polyline fill="none" stroke="black" points="192,-62.3 192,-87.1"/>
<text text-anchor="middle" x="207" y="-70.5" font-family="Times,serif" font-size="14.00">56</text>
</g>
<!-- merge_1&#45;&gt;merge_5 -->
<g id="edge19" class="edge" data-name="merge_1-&gt;merge_5">

<path fill="none" stroke="black" d="M116.11,-124.25C126.79,-115.73 141.7,-103.85 154.08,-93.97"/>
<polygon fill="black" stroke="black" points="156.14,-96.81 161.77,-87.84 151.77,-91.34 156.14,-96.81"/>
</g>
<!-- merge_2&#45;&gt;merge_5 -->
<g id="edge20" class="edge" data-name="merge_2-&gt;merge_5">

<path fill="none" stroke="black" d="M177,-124.25C177,-116.9 177,-107.05 177,-98.14"/>
<polygon fill="black" stroke="black" points="180.5,-98.41 177,-88.41 173.5,-98.41 180.5,-98.41"/>
</g>
<!-- merge_6 -->
<g id="node20" class="node" pointer-events="visible" data-name="merge_6">

<polygon fill="none" stroke="black" points="253.5,-62.3 253.5,-87.1 336.5,-87.1 336.5,-62.3 253.5,-62.3"/>
<text text-anchor="middle" x="265" y="-70.5" font-family="Times,serif" font-size="14.00">9</text>
<polyline fill="none" stroke="black" points="276.5,-62.3 276.5,-87.1"/>
<text text-anchor="middle" x="291.5" y="-70.5" font-family="Times,serif" font-size="14.00">23</text>
<polyline fill="none" stroke="black" points="306.5,-62.3 306.5,-87.1"/>
<text text-anchor="middle" x="321.5" y="-70.5" font-family="Times,serif" font-size="14.00">34</text>
</g>
<!-- merge_3&#45;&gt;merge_6 -->
<g id="edge21" class="edge" data-name="merge_3-&gt;merge_6">

<path fill="none" stroke="black" d="M295,-124.25C295,-116.9 295,-107.05 295,-98.14"/>
<polygon fill="black" stroke="black" points="298.5,-98.41 295,-88.41 291.5,-98.41 298.5,-98.41"/>
</g>
<!-- merge_4&#45;&gt;merge_6 -->
<g id="edge22" class="edge" data-name="merge_4-&gt;merge_6">

<path fill="none" stroke="black" d="M364.01,-124.25C351.66,-115.57 334.35,-103.38 320.15,-93.39"/>
<polygon fill="black" stroke="black" points="322.35,-90.66 312.15,-87.77 318.32,-96.38 322.35,-90.66"/>
</g>
<!-- merge_5&#45;&gt;result -->
<g id="edge23" class="edge" data-name="merge_5-&gt;result">

<path fill="none" stroke="black" d="M186.78,-62.45C193.83,-54.35 203.52,-43.21 211.84,-33.64"/>
<polygon fill="black" stroke="black" points="214.35,-36.08 218.27,-26.24 209.07,-31.49 214.35,-36.08"/>
</g>
<!-- merge_6&#45;&gt;result -->
<g id="edge24" class="edge" data-name="merge_6-&gt;result">

<path fill="none" stroke="black" d="M282.59,-62.45C273.37,-54.1 260.58,-42.51 249.81,-32.75"/>
<polygon fill="black" stroke="black" points="252.24,-30.23 242.48,-26.11 247.54,-35.42 252.24,-30.23"/>
</g>
<!-- merge_pad -->
<g id="node21" class="node" pointer-events="visible" data-name="merge_pad">

</g>
</g>
</svg>