<?xml version="1.0" standalone="no"?>
<svg xmlns="http://www.w3.org/2000/svg" xmlns:xlink="http://www.w3.org/1999/xlink" width="188pt" height="113pt" viewBox="0.00 0.00 188.00 113.40">
<g id="graph0" class="graph" transform="translate(4,109.4000015258789) scale(1)" data-name="">
<polygon fill="white" stroke="none" points="-4,4 -4,-109.4 184,-109.4 184,4 -4,4" style=""/>
<!-- arr1 -->
<g id="node1" class="node" pointer-events="visible" data-name="arr1">

<polygon fill="none" stroke="black" points="0,-80.1 0,-104.9 180,-104.9 180,-80.1 0,-80.1" style=""/>
<text text-anchor="middle" x="15" y="-88.3" font-family="Times,serif" font-size="14.00" style="">10</text>
<polyline fill="none" stroke="black" points="30,-80.1 30,-104.9" style=""/>
<text text-anchor="middle" x="45" y="-88.3" font-family="Times,serif" font-size="14.00" style="">10</text>
<polyline fill="none" stroke="black" points="60,-80.1 60,-104.9" style=""/>
<text text-anchor="middle" x="75" y="-88.3" font-family="Times,serif" font-size="14.00" style="">10</text>
<polyline fill="none" stroke="black" points="90,-80.1 90,-104.9" style=""/>
<text text-anchor="middle" x="105" y="-88.3" font-family="Times,serif" font-size="14.00" style="">10</text>
<polyline fill="none" stroke="black" points="120,-80.1 120,-104.9" style=""/>
<text text-anchor="middle" x="135" y="-88.3" font-family="Times,serif" font-size="14.00" style="">10</text>
<polyline fill="none" stroke="black" points="150,-80.1 150,-104.9" style=""/>
<text text-anchor="middle" x="165" y="-88.3" font-family="Times,serif" font-size="14.00" style="">10</text>
</g>
<!-- arr2 -->
<g id="node2" class="node" pointer-events="visible" data-name="arr2">

<polygon fill="none" stroke="black" points="0,-40.3 0,-65.1 180,-65.1 180,-40.3 0,-40.3" style=""/>
<text text-anchor="middle" x="15" y="-48.5" font-family="Times,serif" font-size="14.00" style="">20</text>
<polyline fill="none" stroke="black" points="30,-40.3 30,-65.1" style=""/>
<text text-anchor="middle" x="45" y="-48.5" font-family="Times,serif" font-size="14.00" style="">20</text>
<polyline fill="none" stroke="black" points="60,-40.3 60,-65.1" style=""/>
<text text-anchor="middle" x="75" y="-48.5" font-family="Times,serif" font-size="14.00" style="">20</text>
<polyline fill="none" stroke="black" points="90,-40.3 90,-65.1" style=""/>
<text text-anchor="middle" x="105" y="-48.5" font-family="Times,serif" font-size="14.00" style="">20</text>
<polyline fill="none" stroke="black" points="120,-40.3 120,-65.1" style=""/>
<text text-anchor="middle" x="135" y="-48.5" font-family="Times,serif" font-size="14.00" style="">20</text>
<polyline fill="none" stroke="black" points="150,-40.3 150,-65.1" style=""/>
<text text-anchor="middle" x="165" y="-48.5" font-family="Times,serif" font-size="14.00" style="">20</text>
</g>
<!-- arr1&#45;&gt;arr2 -->
<!-- result -->
<g id="node3" class="node" pointer-events="visible" data-name="result">

<polygon fill="none" stroke="black" points="0,-0.5 0,-25.3 180,-25.3 180,-0.5 0,-0.5" style=""/>
<text text-anchor="middle" x="15" y="-8.7" font-family="Times,serif" font-size="14.00" style="">30</text>
<polyline fill="none" stroke="black" points="30,-0.5 30,-25.3" style=""/>
<text text-anchor="middle" x="45" y="-8.7" font-family="Times,serif" font-size="14.00" style="">30</text>
<polyline fill="none" stroke="black" points="60,-0.5 60,-25.3" style=""/>
<text text-anchor="middle" x="75" y="-8.7" font-family="Times,serif" font-size="14.00" style="">30</text>
<polyline fill="none" stroke="black" points="90,-0.5 90,-25.3" style=""/>
<text text-anchor="middle" x="105" y="-8.7" font-family="Times,serif" font-size="14.00" style="">30</text>
<polyline fill="none" stroke="black" points="120,-0.5 120,-25.3" style=""/>
<text text-anchor="middle" x="135" y="-8.7" font-family="Times,serif" font-size="14.00" style="">30</text>
<polyline fill="none" stroke="black" points="150,-0.5 150,-25.3" style=""/>
<text text-anchor="middle" x="165" y="-8.7" font-family="Times,serif" font-size="14.00" style="">30</text>
</g>
<!-- arr2&#45;&gt;result -->
</g>
</svg>