<?xml version="1.0" standalone="no"?>
<svg xmlns="http://www.w3.org/2000/svg" xmlns:xlink="http://www.w3.org/1999/xlink" width="264pt" height="404pt" viewBox="0.00 0.00 264.34 404.00">
<g id="graph0" class="graph" transform="translate(4,400) scale(1)" data-name="Factorial">

<polygon fill="white" stroke="none" points="-4,4 -4,-400 260.34,-400 260.34,4 -4,4"/>
<!-- factorial(4) -->
<g id="node1" class="node" pointer-events="visible" data-name="factorial(4)">

<text text-anchor="middle" x="67" y="-374.4" font-family="Arial" font-size="12.00">factorial(4)</text>
</g>
<!-- 4 -->
<g id="node2" class="node" pointer-events="visible" data-name="4">

<text text-anchor="middle" x="27" y="-302.4" font-family="Arial" font-size="12.00">4</text>
</g>
<!-- factorial(4)&#45;&gt;4 -->
<g id="edge1" class="edge" data-name="factorial(4)-&gt;4">

<path fill="none" stroke="black" d="M57.32,-360.05C52.8,-352.14 47.31,-342.54 42.25,-333.69"/>
<polygon fill="black" stroke="black" points="45.34,-332.05 37.34,-325.1 39.27,-335.52 45.34,-332.05"/>
</g>
<!-- factorial(3) -->
<g id="node3" class="node" pointer-events="visible" data-name="factorial(3)">

<text text-anchor="middle" x="108" y="-302.4" font-family="Arial" font-size="12.00">factorial(3)</text>
</g>
<!-- factorial(4)&#45;&gt;factorial(3) -->
<g id="edge2" class="edge" data-name="factorial(4)-&gt;factorial(3)">

<path fill="none" stroke="black" d="M76.92,-360.05C81.56,-352.14 87.18,-342.54 92.37,-333.69"/>
<polygon fill="black" stroke="black" points="95.37,-335.49 97.4,-325.1 89.33,-331.95 95.37,-335.49"/>
</g>
<!-- 3 -->
<g id="node4" class="node" pointer-events="visible" data-name="3">

<text text-anchor="middle" x="67" y="-230.4" font-family="Arial" font-size="12.00">3</text>
</g>
<!-- factorial(3)&#45;&gt;3 -->
<g id="edge3" class="edge" data-name="factorial(3)-&gt;3">

<path fill="none" stroke="black" d="M98.08,-288.05C93.44,-280.14 87.82,-270.54 82.63,-261.69"/>
<polygon fill="black" stroke="black" points="85.67,-259.95 77.6,-253.1 79.63,-263.49 85.67,-259.95"/>
</g>
<!-- factorial(2) -->
<g id="node5" class="node" pointer-events="visible" data-name="factorial(2)">

<text text-anchor="middle" x="148" y="-230.4" font-family="Arial" font-size="12.00">factorial(2)</text>
</g>
<!-- factorial(3)&#45;&gt;factorial(2) -->
<g id="edge4" class="edge" data-name="factorial(3)-&gt;factorial(2)">

<path fill="none" stroke="black" d="M117.68,-288.05C122.2,-280.14 127.69,-270.54 132.75,-261.69"/>
<polygon fill="black" stroke="black" points="135.73,-263.52 137.66,-253.1 129.66,-260.05 135.73,-263.52"/>
</g>
<!-- 2 -->
<g id="node6" class="node" pointer-events="visible" data-name="2">

<text text-anchor="middle" x="107" y="-158.4" font-family="Arial" font-size="12.00">2</text>
</g>
<!-- factorial(2)&#45;&gt;2 -->
<g id="edge5" class="edge" data-name="factorial(2)-&gt;2">

<path fill="none" stroke="black" d="M138.08,-216.05C133.44,-208.14 127.82,-198.54 122.63,-189.69"/>
<polygon fill="black" stroke="black" points="125.67,-187.95 117.6,-181.1 119.63,-191.49 125.67,-187.95"/>
</g>
<!-- factorial(1) -->
<g id="node7" class="node" pointer-events="visible" data-name="factorial(1)">

<text text-anchor="middle" x="188" y="-158.4" font-family="Arial" font-size="12.00">factorial(1)</text>
</g>
<!-- factorial(2)&#45;&gt;factorial(1) -->
<g id="edge6" class="edge" data-name="factorial(2)-&gt;factorial(1)">

<path fill="none" stroke="black" d="M157.68,-216.05C162.2,-208.14 167.69,-198.54 172.75,-189.69"/>
<polygon fill="black" stroke="black" points="175.73,-191.52 177.66,-181.1 169.66,-188.05 175.73,-191.52"/>
</g>
<!-- 1 -->
<g id="node8" class="node" pointer-events="visible" data-name="1">

<text text-anchor="middle" x="188" y="-14.4" font-family="Arial" font-size="12.00">1</text>
</g>
<!-- factorial(1)&#45;&gt;1 -->
<g id="edge7" class="edge" data-name="factorial(1)-&gt;1">

<path fill="none" stroke="black" d="M182.73,-144.01C179.81,-133.7 176.48,-120.23 175,-108 173.08,-92.12 173.08,-87.88 175,-72 175.99,-63.78 177.82,-55.01 179.8,-47"/>
<polygon fill="black" stroke="black" points="183.15,-48.02 182.34,-37.46 176.39,-46.22 183.15,-48.02"/>
</g>
<!-- factorial(0) -->
<g id="node9" class="node" pointer-events="visible" data-name="factorial(0)">

<text text-anchor="middle" x="220" y="-86.4" font-family="Arial" font-size="12.00">factorial(0)</text>
</g>
<!-- factorial(1)&#45;&gt;factorial(0) -->
<g id="edge8" class="edge" data-name="factorial(1)-&gt;factorial(0)">

<path fill="none" stroke="black" d="M195.75,-144.05C199.32,-136.23 203.66,-126.75 207.67,-117.98"/>
<polygon fill="black" stroke="black" points="210.72,-119.72 211.7,-109.17 204.35,-116.81 210.72,-119.72"/>
</g>
<!-- factorial(0)&#45;&gt;1 -->
<g id="edge9" class="edge" data-name="factorial(0)-&gt;1">

<path fill="none" stroke="black" d="M212.25,-72.05C208.68,-64.23 204.34,-54.75 200.33,-45.98"/>
<polygon fill="black" stroke="black" points="203.65,-44.81 196.3,-37.17 197.28,-47.72 203.65,-44.81"/>
</g>
</g>
</svg>