<?xml version="1.0" standalone="no"?>
<svg xmlns="http://www.w3.org/2000/svg" xmlns:xlink="http://www.w3.org/1999/xlink" width="247pt" height="34pt" viewBox="0.00 0.00 246.5 33.8">
<g id="graph0" class="graph" transform="translate(4,29.799999237060547) scale(1)" data-name="">
<polygon fill="white" stroke="none" points="-4,4 -4,-29.8 242.5,-29.8 242.5,4 -4,4"/>
<!-- arr1 -->
<g id="node1" class="node" pointer-events="visible" data-name="arr1">

<polygon fill="none" stroke="black" points="0,-0.5 0,-25.3 238.5,-25.3 238.5,-0.5 0,-0.5"/>
<text text-anchor="middle" x="13.25" y="-8.7" font-family="Times,serif" font-size="14.00">　</text>
<polyline fill="none" stroke="black" points="26.5,-0.5 26.5,-25.3"/>
<text text-anchor="middle" x="39.75" y="-8.7" font-family="Times,serif" font-size="14.00">　</text>
<polyline fill="none" stroke="black" points="53,-0.5 53,-25.3"/>
<text text-anchor="middle" x="66.25" y="-8.7" font-family="Times,serif" font-size="14.00">　</text>
<polyline fill="none" stroke="black" points="79.5,-0.5 79.5,-25.3"/>
<text text-anchor="middle" x="92.75" y="-8.7" font-family="Times,serif" font-size="14.00">　</text>
<polyline fill="none" stroke="black" points="106,-0.5 106,-25.3"/>
<text text-anchor="middle" x="119.25" y="-8.7" font-family="Times,serif" font-size="14.00">　</text>
<polyline fill="none" stroke="black" points="132.5,-0.5 132.5,-25.3"/>
<text text-anchor="middle" x="145.75" y="-8.7" font-family="Times,serif" font-size="14.00">　</text>
<polyline fill="none" stroke="black" points="159,-0.5 159,-25.3"/>
<text text-anchor="middle" x="172.25" y="-8.7" font-family="Times,serif" font-size="14.00">　</text>
<polyline fill="none" stroke="black" points="185.5,-0.5 185.5,-25.3"/>
<text text-anchor="middle" x="198.75" y="-8.7" font-family="Times,serif" font-size="14.00">　</text>
<polyline fill="none" stroke="black" points="212,-0.5 212,-25.3"/>
<text text-anchor="middle" x="225.25" y="-8.7" font-family="Times,serif" font-size="14.00">　</text>
</g>
</g>
</svg>